<?xml version="1.0" encoding="UTF-8"?>
<svg version="1.1" xmlns="http://www.w3.org/2000/svg" width="512" height="512">
<path d="M0 0 C1.308479 -0.00570007 2.61695801 -0.01140015 3.96508789 -0.01727295 C6.73210025 -0.02774015 9.49908395 -0.03360951 12.26611328 -0.03710938 C15.76774081 -0.04255969 19.26897275 -0.06653073 22.77047729 -0.09508133 C26.15947486 -0.11849005 29.54842605 -0.12017654 32.9375 -0.125 C34.17242187 -0.1373468 35.40734375 -0.1496936 36.6796875 -0.16241455 C65.97861274 -0.08898984 93.50156508 12.72863416 114.3671875 32.98046875 C131.94162825 50.69026409 142.30687538 72.7328007 146.5 97.203125 C146.63148438 97.96367187 146.76296875 98.72421875 146.8984375 99.5078125 C148.60804604 111.75230613 147.61891729 124.09502618 145.5 136.203125 C146.59183594 136.33460938 147.68367188 136.46609375 148.80859375 136.6015625 C155.35518117 137.66841378 159.03372005 141.49353721 163.203125 146.32421875 C167.59970307 152.69395987 167.15882148 159.75337439 166.5 167.203125 C164.59141916 174.76497061 158.5884536 179.72853466 152.125 183.640625 C147.93914492 184.53759395 143.76247405 184.35210468 139.5 184.203125 C139.11739014 185.45077637 139.11739014 185.45077637 138.72705078 186.72363281 C137.36047873 190.59875912 135.68397066 194.19553417 133.8671875 197.875 C133.33389328 198.95868866 133.33389328 198.95868866 132.78982544 200.06427002 C132.03725597 201.58822679 131.28239987 203.11105626 130.52539062 204.6328125 C129.38807192 206.92675923 128.26815676 209.22867313 127.1484375 211.53125 C119.46627029 227.12200286 110.21292794 239.63117837 93.5 246.203125 C88.13118522 247.72929785 83.48144523 248.45594413 77.86114502 248.47055054 C76.77328363 248.47734721 76.77328363 248.47734721 75.66344523 248.48428118 C73.25635788 248.49684504 70.84949912 248.49531005 68.44238281 248.49365234 C66.70699781 248.49964265 64.97161546 248.50644934 63.23623657 248.51400757 C58.53769297 248.5316245 53.83922228 248.53636115 49.14064884 248.53763914 C46.20037396 248.53906383 43.26011742 248.54333947 40.31984711 248.54863358 C30.04850596 248.56712018 19.77721661 248.57530598 9.50585938 248.57373047 C-0.04627733 248.57252971 -9.59818786 248.59362275 -19.15026736 248.6252178 C-27.36966722 248.65142932 -35.58899343 248.66209571 -43.80843472 248.66081965 C-48.7093332 248.66031142 -53.61003056 248.66591759 -58.51088715 248.68717575 C-63.12391637 248.70664028 -67.73655434 248.70662682 -72.34959793 248.69214249 C-74.03453014 248.69006339 -75.71948738 248.69470119 -77.40437698 248.7068634 C-98.96432934 248.85230792 -98.96432934 248.85230792 -106.79072189 242.27924156 C-108.5 240.203125 -108.5 240.203125 -109 236.765625 C-108.40851499 232.55129429 -107.7883921 230.91604848 -104.5 228.203125 C-99.12425385 227.59618592 -95.58660477 228.40161914 -90.5 230.203125 C-82.79919763 231.52975991 -75.05119909 231.35141824 -67.26245117 231.34838867 C-65.72248758 231.35138458 -64.18252474 231.3547881 -62.64256287 231.35856628 C-58.47713756 231.36736637 -54.31173283 231.36974271 -50.14629912 231.37038207 C-47.53904684 231.37109482 -44.93179972 231.3732334 -42.32454872 231.37587929 C-33.214979 231.38511939 -24.10542387 231.38921583 -14.99584961 231.38842773 C-6.5264398 231.38782725 1.94290625 231.39837675 10.41229993 231.4141714 C17.70259709 231.42727897 24.99287348 231.43261029 32.28318232 231.43197232 C36.62898961 231.43171829 40.97474019 231.43451707 45.32053566 231.44515038 C49.41063735 231.45488571 53.50062873 231.45487357 57.59073448 231.44763374 C59.08418821 231.44659464 60.577649 231.44891031 62.0710907 231.4549942 C77.34924489 231.58563709 77.34924489 231.58563709 91.75 227.015625 C92.87148438 226.46841797 92.87148438 226.46841797 94.015625 225.91015625 C101.64790871 220.66596131 105.57402363 214.08295385 109.625 205.890625 C110.12386719 204.90900391 110.62273437 203.92738281 111.13671875 202.91601562 C112.60552442 200.01867181 114.05501401 197.11240968 115.5 194.203125 C116.45533448 192.29277132 117.41103723 190.38260175 118.3671875 188.47265625 C119.07825562 187.04954442 119.78924581 185.62639364 120.5 184.203125 C97.694163 181.55151417 97.694163 181.55151417 76.91177368 188.66348267 C71.41625462 193.40143389 66.83234479 198.98357208 62.59765625 204.85888672 C59.61844334 208.18830972 56.36896173 209.88248396 51.97265625 210.63671875 C45.92452136 210.64652124 42.32061706 209.96320631 37.5 206.203125 C33.39736341 200.53183325 28.5 191.23550588 28.5 184.203125 C27.65700851 184.20681217 26.81401703 184.21049934 25.94548035 184.21429825 C5.4218633 184.30268347 -15.10172089 184.36885128 -35.62548828 184.41037369 C-45.55068807 184.43098798 -55.47576072 184.45908696 -65.40087891 184.50488281 C-74.05287163 184.54478522 -82.70477226 184.57056605 -91.35685444 184.57947898 C-95.93696304 184.58468796 -100.51680821 184.59690736 -105.09683228 184.62604523 C-109.41095275 184.65326813 -113.72470217 184.66155615 -118.03890038 184.65555573 C-119.61909186 184.6566529 -121.19929622 184.6645659 -122.77941322 184.6799469 C-132.14751692 184.76663612 -139.37568759 184.69359389 -146.7421875 178.23828125 C-147.55042969 177.26181641 -147.55042969 177.26181641 -148.375 176.265625 C-148.92929688 175.61722656 -149.48359375 174.96882812 -150.0546875 174.30078125 C-154.53412097 167.79954943 -154.17463728 160.83171583 -153.5 153.203125 C-151.81914417 146.54353167 -147.03621678 142.01765053 -141.5 138.203125 C-136.53295494 135.49394678 -131.37882984 135.91413905 -125.87626648 135.9246521 C-124.25277156 135.9159635 -124.25277156 135.9159635 -122.59647876 135.90709937 C-118.96362182 135.89007109 -115.3308917 135.88722038 -111.69799805 135.88427734 C-109.09630521 135.87498114 -106.49461537 135.86481293 -103.89292908 135.85383606 C-98.28850022 135.8315687 -92.6840896 135.81655228 -87.07962608 135.80646896 C-78.97653273 135.79187973 -70.87350293 135.76634222 -62.77044687 135.73813768 C-49.62359274 135.69267413 -36.47672946 135.65605751 -23.32983398 135.625 C-10.55930982 135.59481267 2.21119195 135.56046155 14.98168945 135.52050781 C16.16256928 135.51681549 16.16256928 135.51681549 17.36730526 135.51304857 C21.31674711 135.50067394 25.2661887 135.48821741 29.21563017 135.47572017 C61.97705642 135.37215892 94.73850719 135.2829535 127.5 135.203125 C127.83093534 133.01103357 128.15674393 130.81816787 128.48046875 128.625 C128.75346802 126.79340332 128.75346802 126.79340332 129.03198242 124.92480469 C132.05675213 100.87181076 124.97361574 74.78369842 110.18164062 55.48291016 C107.16282989 51.83572504 103.8892999 48.50564339 100.5 45.203125 C99.68660156 44.39230469 98.87320313 43.58148438 98.03515625 42.74609375 C85.97669855 31.27394679 71.0352962 23.81141675 54.9375 19.890625 C54.29006836 19.73110352 53.64263672 19.57158203 52.97558594 19.40722656 C41.31565148 16.80142967 29.20187009 16.99723437 17.3125 17.015625 C16.58799652 17.01622925 15.86349304 17.0168335 15.11703491 17.01745605 C-0.01350916 17.05166022 -13.90679796 17.9025618 -28.43359375 22.36328125 C-32.80556542 23.56070024 -36.00002233 23.85634757 -40.5 23.203125 C-43.80504612 20.54296593 -44.38272732 18.85985198 -45.125 14.703125 C-44.43109168 10.81723841 -43.41541708 9.74846654 -40.37207031 7.3671875 C-37.00774836 5.27523561 -33.37936343 4.39704641 -29.5625 3.453125 C-28.78970703 3.24558594 -28.01691406 3.03804687 -27.22070312 2.82421875 C-18.0597552 0.42363223 -9.4535549 0.0321125 0 0 Z M-135.5 155.203125 C-136.92041821 158.04396141 -136.81452272 160.05789778 -136.5 163.203125 C-134.26793569 166.05093119 -132.95007001 167.05310166 -129.5 168.203125 C-127.45790348 168.29473164 -125.41287812 168.32506472 -123.36872864 168.32337952 C-122.08565323 168.32475418 -120.80257782 168.32612885 -119.48062134 168.32754517 C-118.05584694 168.32400601 -116.63107277 168.3203712 -115.20629883 168.31665039 C-113.70833844 168.31636837 -112.21037791 168.31652655 -110.7124176 168.3170929 C-106.64246505 168.31738027 -102.57254186 168.31149315 -98.50259614 168.30451894 C-94.25048613 168.29827551 -89.99837548 168.29768082 -85.7462616 168.29649353 C-77.69276404 168.29338314 -69.63928002 168.28517368 -61.58578843 168.27514404 C-52.41781776 168.26397385 -43.24984645 168.25847016 -34.08187068 168.25344861 C-15.22123922 168.24299083 3.63937881 168.22519603 22.5 168.203125 C20.52 162.923125 18.54 157.643125 16.5 152.203125 C-2.43239012 152.13366462 -21.36474422 152.08013424 -40.29723549 152.04768848 C-49.08801233 152.03222263 -57.87870852 152.01113849 -66.66943359 151.97680664 C-74.33184214 151.94689567 -81.99419227 151.92754795 -89.65665758 151.92085952 C-93.71351692 151.91695013 -97.77020916 151.90776843 -101.82701492 151.88593483 C-105.64698646 151.86554281 -109.46672236 151.85929665 -113.28674316 151.86380196 C-114.68716081 151.86297797 -116.08758649 151.85702835 -117.487957 151.84550858 C-119.40382912 151.83052384 -121.31982823 151.83597255 -123.23574829 151.84236145 C-124.30687174 151.83959607 -125.37799519 151.83683069 -126.48157692 151.83398151 C-130.03287967 152.26829448 -132.44394667 153.36965122 -135.5 155.203125 Z M34.5 152.203125 C39.94822566 167.94680686 39.94822566 167.94680686 45.9375 183.453125 C46.28748047 184.31679688 46.63746094 185.18046875 46.99804688 186.0703125 C47.82780881 188.11630084 48.66319165 190.16000852 49.5 192.203125 C55.34812488 188.06473335 60.46586448 183.5208821 65.5 178.43359375 C66.2211499 177.71198563 66.9422998 176.9903775 67.68530273 176.24690247 C69.19346372 174.73574244 70.69921617 173.22217509 72.20263672 171.70629883 C74.5159956 169.37450191 76.83743961 167.05098782 79.16015625 164.72851562 C80.62808012 163.25568255 82.09554507 161.7823919 83.5625 160.30859375 C84.25923828 159.61074265 84.95597656 158.91289154 85.67382812 158.19389343 C86.30869141 157.5526503 86.94355469 156.91140717 87.59765625 156.25073242 C88.44082397 155.401847 88.44082397 155.401847 89.30102539 154.53581238 C90.61147131 153.3779972 90.61147131 153.3779972 90.5 152.203125 C72.02 152.203125 53.54 152.203125 34.5 152.203125 Z M101.44848633 165.71264648 C100.41052075 167.04928885 100.41052075 167.04928885 100.5 168.203125 C106.37155408 168.27746295 112.24283219 168.33181617 118.11474609 168.36791992 C120.11088841 168.38297598 122.10699781 168.40342527 124.10302734 168.42944336 C126.97762185 168.46596661 129.85177772 168.48288337 132.7265625 168.49609375 C133.61429352 168.51157761 134.50202454 168.52706146 135.41665649 168.54301453 C140.52580902 168.54439205 144.09090669 168.09261345 148.5 165.203125 C149.92041821 162.36228859 149.81452272 160.34835222 149.5 157.203125 C146.71455013 153.64927517 144.39626978 152.46141373 139.91894531 151.8515625 C122.52809185 150.31303518 112.13977938 151.11988986 101.44848633 165.71264648 Z " fill="#000000" transform="translate(273.5,127.796875)"/>
<path d="M0 0 C1.14404297 -0.0112793 2.28808594 -0.02255859 3.46679688 -0.03417969 C5.34334961 -0.0220343 5.34334961 -0.0220343 7.2578125 -0.00964355 C8.59180465 -0.01506511 9.9257908 -0.02218797 11.25976562 -0.03088379 C14.87966598 -0.04911656 18.49911024 -0.04205017 22.11901855 -0.02936745 C25.9074832 -0.01923938 29.69590882 -0.02863258 33.484375 -0.03491211 C39.84642548 -0.04218911 46.20829022 -0.03259956 52.5703125 -0.0135498 C59.92541387 0.00821921 67.28007173 0.00116786 74.63516235 -0.02085543 C80.95036617 -0.03900805 87.26543648 -0.04156848 93.58065796 -0.03110075 C97.35234853 -0.02486499 101.12383064 -0.02403225 104.89550781 -0.0372467 C108.44153603 -0.04880278 111.98699253 -0.04078487 115.53295898 -0.01766968 C117.45490737 -0.00985857 119.37690412 -0.02174065 121.29882812 -0.03417969 C123.01489258 -0.01726074 123.01489258 -0.01726074 124.765625 0 C125.75965332 0.0015081 126.75368164 0.0030162 127.77783203 0.00457001 C131.10045353 0.6466055 132.29109008 1.90497918 134.3828125 4.50793457 C134.9140625 6.50793457 134.9140625 6.50793457 134.8828125 8.50793457 C134.89828125 9.49793457 134.89828125 9.49793457 134.9140625 10.50793457 C134.13782429 13.43024313 132.6995018 14.60216083 130.3828125 16.50793457 C127.77783203 17.01129913 127.77783203 17.01129913 124.765625 17.01586914 C123.62158203 17.02714844 122.47753906 17.03842773 121.29882812 17.05004883 C120.04779297 17.0419519 118.79675781 17.03385498 117.5078125 17.0255127 C116.17382035 17.03093425 114.8398342 17.03805711 113.50585938 17.04675293 C109.88595902 17.0649857 106.26651476 17.05791931 102.64660645 17.04523659 C98.8581418 17.03510852 95.06971618 17.04450172 91.28125 17.05078125 C84.91919952 17.05805825 78.55733478 17.0484687 72.1953125 17.02941895 C64.84021113 17.00764993 57.48555327 17.01470128 50.13046265 17.03672457 C43.81525883 17.05487719 37.50018852 17.05743762 31.18496704 17.04696989 C27.41327647 17.04073413 23.64179436 17.03990139 19.87011719 17.05311584 C16.32408897 17.06467192 12.77863247 17.05665401 9.23266602 17.03353882 C7.31071763 17.02572771 5.38872088 17.03760979 3.46679688 17.05004883 C1.75073242 17.03312988 1.75073242 17.03312988 0 17.01586914 C-0.99402832 17.01436104 -1.98805664 17.01285294 -3.01220703 17.01129913 C-6.33482853 16.36926364 -7.52546508 15.11088996 -9.6171875 12.50793457 C-10.1484375 10.50793457 -10.1484375 10.50793457 -10.1171875 8.50793457 C-10.13265625 7.51793457 -10.13265625 7.51793457 -10.1484375 6.50793457 C-8.74861472 1.23801353 -4.99267277 0.0075747 0 0 Z " fill="#000000" transform="translate(81.6171875,199.4920654296875)"/>
<path d="M0 0 C0.93050171 -0.00700928 1.86100342 -0.01401855 2.81970215 -0.02124023 C5.89572993 -0.03884649 8.97083785 -0.02718794 12.046875 -0.01367188 C14.18392107 -0.01636603 16.32096594 -0.0202478 18.45800781 -0.02526855 C22.93696767 -0.03116718 27.41560847 -0.02258871 31.89453125 -0.00390625 C37.63829952 0.01888325 43.3813202 0.00576216 49.12506104 -0.01819611 C53.53798057 -0.03264409 57.9507226 -0.02805263 62.36364746 -0.01768494 C64.48156828 -0.0150149 66.59950517 -0.01829712 68.71740723 -0.02760315 C71.67662295 -0.03775205 74.63462479 -0.02229048 77.59375 0 C78.47075562 -0.00809692 79.34776123 -0.01619385 80.25134277 -0.02453613 C86.18484028 0.05834635 86.18484028 0.05834635 89.33886719 2.42492676 C90.91627877 4.68895613 91.33954845 5.78647741 91.296875 8.51757812 C91.31234375 9.50757813 91.31234375 9.50757813 91.328125 10.51757812 C90.51456318 13.58039909 89.34180405 14.60802586 86.796875 16.51757812 C83.73403347 17.12162149 80.70727013 17.06390172 77.59375 17.03515625 C76.66324829 17.04216553 75.73274658 17.0491748 74.77404785 17.05639648 C71.69802007 17.07400274 68.62291215 17.06234419 65.546875 17.04882812 C63.40982893 17.05152228 61.27278406 17.05540405 59.13574219 17.0604248 C54.65678233 17.06632343 50.17814153 17.05774496 45.69921875 17.0390625 C39.95545048 17.016273 34.2124298 17.02939409 28.46868896 17.05335236 C24.05576943 17.06780034 19.6430274 17.06320888 15.23010254 17.05284119 C13.11218172 17.05017115 10.99424483 17.05345337 8.87634277 17.0627594 C5.91712705 17.0729083 2.95912521 17.05744673 0 17.03515625 C-0.87700562 17.04325317 -1.75401123 17.0513501 -2.65759277 17.05969238 C-8.59109028 16.9768099 -8.59109028 16.9768099 -11.74511719 14.61022949 C-13.32252877 12.34620012 -13.74579845 11.24867884 -13.703125 8.51757812 C-13.71859375 7.52757812 -13.71859375 7.52757812 -13.734375 6.51757812 C-11.86960654 -0.50272668 -6.00604586 -0.05545061 0 0 Z " fill="#000000" transform="translate(109.203125,327.482421875)"/>
<path d="M0 0 C0.77444458 -0.00700928 1.54888916 -0.01401855 2.34680176 -0.02124023 C4.90344232 -0.03882686 7.45897344 -0.02719576 10.015625 -0.01367188 C11.79394747 -0.01636661 13.57226851 -0.02024888 15.35058594 -0.02526855 C19.07631468 -0.03116448 22.80165964 -0.02259774 26.52734375 -0.00390625 C31.30261787 0.01888354 36.07699276 0.00576094 40.85223389 -0.01819611 C44.52399468 -0.03265162 48.19554235 -0.02804927 51.86730957 -0.01768494 C53.62797146 -0.01501696 55.38865271 -0.01828992 57.14929199 -0.02760315 C59.61046587 -0.03776495 62.0701845 -0.0222744 64.53125 0 C65.2586438 -0.00809692 65.9860376 -0.01619385 66.73547363 -0.02453613 C70.17906688 0.03319039 71.96216633 0.28135145 74.71582031 2.42492676 C76.39732531 4.69540881 76.80921353 5.72791231 76.765625 8.51757812 C76.78109375 9.50757813 76.78109375 9.50757813 76.796875 10.51757812 C75.99974611 13.51853394 74.71165797 14.61346966 72.265625 16.51757812 C69.55182754 16.91240719 67.2431129 17.06534313 64.53125 17.03515625 C63.36958313 17.04567017 63.36958313 17.04567017 62.18444824 17.05639648 C59.62780768 17.07398311 57.07227656 17.06235201 54.515625 17.04882812 C52.73730253 17.05152286 50.95898149 17.05540513 49.18066406 17.0604248 C45.45493532 17.06632073 41.72959036 17.05775399 38.00390625 17.0390625 C33.22863213 17.01627271 28.45425724 17.02939531 23.67901611 17.05335236 C20.00725532 17.06780787 16.33570765 17.06320552 12.66394043 17.05284119 C10.90327854 17.05017321 9.14259729 17.05344617 7.38195801 17.0627594 C4.92078413 17.0729212 2.4610655 17.05743065 0 17.03515625 C-0.7273938 17.04325317 -1.4547876 17.0513501 -2.20422363 17.05969238 C-5.64781688 17.00196586 -7.43091633 16.7538048 -10.18457031 14.61022949 C-11.86607531 12.33974744 -12.27796353 11.30724394 -12.234375 8.51757812 C-12.24984375 7.52757812 -12.24984375 7.52757812 -12.265625 6.51757812 C-10.59962649 0.24558375 -5.60949142 -0.06244159 0 0 Z " fill="#000000" transform="translate(123.734375,231.482421875)"/>
<path d="M0 0 C0.77444458 -0.00700928 1.54888916 -0.01401855 2.34680176 -0.02124023 C4.90344232 -0.03882686 7.45897344 -0.02719576 10.015625 -0.01367188 C11.79394747 -0.01636661 13.57226851 -0.02024888 15.35058594 -0.02526855 C19.07631468 -0.03116448 22.80165964 -0.02259774 26.52734375 -0.00390625 C31.30261787 0.01888354 36.07699276 0.00576094 40.85223389 -0.01819611 C44.52399468 -0.03265162 48.19554235 -0.02804927 51.86730957 -0.01768494 C53.62797146 -0.01501696 55.38865271 -0.01828992 57.14929199 -0.02760315 C59.61046587 -0.03776495 62.0701845 -0.0222744 64.53125 0 C65.2586438 -0.00809692 65.9860376 -0.01619385 66.73547363 -0.02453613 C70.17906688 0.03319039 71.96216633 0.28135145 74.71582031 2.42492676 C76.39732531 4.69540881 76.80921353 5.72791231 76.765625 8.51757812 C76.78109375 9.50757813 76.78109375 9.50757813 76.796875 10.51757812 C75.99974611 13.51853394 74.71165797 14.61346966 72.265625 16.51757812 C69.55182754 16.91240719 67.2431129 17.06534313 64.53125 17.03515625 C63.36958313 17.04567017 63.36958313 17.04567017 62.18444824 17.05639648 C59.62780768 17.07398311 57.07227656 17.06235201 54.515625 17.04882812 C52.73730253 17.05152286 50.95898149 17.05540513 49.18066406 17.0604248 C45.45493532 17.06632073 41.72959036 17.05775399 38.00390625 17.0390625 C33.22863213 17.01627271 28.45425724 17.02939531 23.67901611 17.05335236 C20.00725532 17.06780787 16.33570765 17.06320552 12.66394043 17.05284119 C10.90327854 17.05017321 9.14259729 17.05344617 7.38195801 17.0627594 C4.92078413 17.0729212 2.4610655 17.05743065 0 17.03515625 C-0.7273938 17.04325317 -1.4547876 17.0513501 -2.20422363 17.05969238 C-5.64781688 17.00196586 -7.43091633 16.7538048 -10.18457031 14.61022949 C-11.86607531 12.33974744 -12.27796353 11.30724394 -12.234375 8.51757812 C-12.24984375 7.52757812 -12.24984375 7.52757812 -12.265625 6.51757812 C-10.59962649 0.24558375 -5.60949142 -0.06244159 0 0 Z " fill="#000000" transform="translate(155.734375,167.482421875)"/>
<path d="M0 0 C2.5 1.5 2.5 1.5 4 4 C4.791013 8.02098277 4.62153384 10.96411027 2.5 14.5 C-1.03588973 16.62153384 -3.97901723 16.791013 -8 16 C-10.5 14.5 -10.5 14.5 -12 12 C-12.791013 7.97901723 -12.62153384 5.03588973 -10.5 1.5 C-6.96411027 -0.62153384 -4.02098277 -0.791013 0 0 Z " fill="#000000" transform="translate(276,232)"/>
<path d="M0 0 C2.5 1.5 2.5 1.5 4 4 C4.791013 8.02098277 4.62153384 10.96411027 2.5 14.5 C-1.03588973 16.62153384 -3.97901723 16.791013 -8 16 C-10.5 14.5 -10.5 14.5 -12 12 C-12.791013 7.97901723 -12.62153384 5.03588973 -10.5 1.5 C-6.96411027 -0.62153384 -4.02098277 -0.791013 0 0 Z " fill="#000000" transform="translate(372,224)"/>
<path d="M0 0 C2.5 1.5 2.5 1.5 4 4 C4.791013 8.02098277 4.62153384 10.96411027 2.5 14.5 C-1.03588973 16.62153384 -3.97901723 16.791013 -8 16 C-10.5 14.5 -10.5 14.5 -12 12 C-12.791013 7.97901723 -12.62153384 5.03588973 -10.5 1.5 C-6.96411027 -0.62153384 -4.02098277 -0.791013 0 0 Z " fill="#000000" transform="translate(324,216)"/>
<path d="M0 0 C2.5 1.5 2.5 1.5 4 4 C4.791013 8.02098277 4.62153384 10.96411027 2.5 14.5 C-1.03588973 16.62153384 -3.97901723 16.791013 -8 16 C-10.5 14.5 -10.5 14.5 -12 12 C-12.791013 7.97901723 -12.62153384 5.03588973 -10.5 1.5 C-6.96411027 -0.62153384 -4.02098277 -0.791013 0 0 Z " fill="#000000" transform="translate(236,216)"/>
<path d="M0 0 C2.5 1.5 2.5 1.5 4 4 C4.791013 8.02098277 4.62153384 10.96411027 2.5 14.5 C-1.03588973 16.62153384 -3.97901723 16.791013 -8 16 C-10.5 14.5 -10.5 14.5 -12 12 C-12.791013 7.97901723 -12.62153384 5.03588973 -10.5 1.5 C-6.96411027 -0.62153384 -4.02098277 -0.791013 0 0 Z " fill="#000000" transform="translate(284,200)"/>
<path d="M0 0 C2.5 1.5 2.5 1.5 4 4 C4.791013 8.02098277 4.62153384 10.96411027 2.5 14.5 C-1.03588973 16.62153384 -3.97901723 16.791013 -8 16 C-10.5 14.5 -10.5 14.5 -12 12 C-12.791013 7.97901723 -12.62153384 5.03588973 -10.5 1.5 C-6.96411027 -0.62153384 -4.02098277 -0.791013 0 0 Z " fill="#000000" transform="translate(348,184)"/>
<path d="M0 0 C2.5 1.5 2.5 1.5 4 4 C4.791013 8.02098277 4.62153384 10.96411027 2.5 14.5 C-1.03588973 16.62153384 -3.97901723 16.791013 -8 16 C-10.5 14.5 -10.5 14.5 -12 12 C-12.791013 7.97901723 -12.62153384 5.03588973 -10.5 1.5 C-6.96411027 -0.62153384 -4.02098277 -0.791013 0 0 Z " fill="#000000" transform="translate(252,176)"/>
<path d="M0 0 C2.5 1.5 2.5 1.5 4 4 C4.791013 8.02098277 4.62153384 10.96411027 2.5 14.5 C-1.03588973 16.62153384 -3.97901723 16.791013 -8 16 C-10.5 14.5 -10.5 14.5 -12 12 C-12.791013 7.97901723 -12.62153384 5.03588973 -10.5 1.5 C-6.96411027 -0.62153384 -4.02098277 -0.791013 0 0 Z " fill="#000000" transform="translate(300,168)"/>
</svg>
